<svg width="39" height="36" viewBox="0 0 39 36" fill="none" xmlns="http://www.w3.org/2000/svg">
<ellipse cx="19.5" cy="18" rx="19.5" ry="18" fill="white"/>
<path d="M29.375 9.5625H26.1266L24.5293 7.16719C24.4437 7.03893 24.3278 6.93375 24.1919 6.86098C24.056 6.78821 23.9042 6.75009 23.75 6.75H16.25C16.0958 6.75009 15.944 6.78821 15.8081 6.86098C15.6722 6.93375 15.5563 7.03893 15.4707 7.16719L13.8723 9.5625H10.625C9.87908 9.5625 9.16371 9.85882 8.63626 10.3863C8.10882 10.9137 7.8125 11.6291 7.8125 12.375V25.5C7.8125 26.2459 8.10882 26.9613 8.63626 27.4887C9.16371 28.0162 9.87908 28.3125 10.625 28.3125H29.375C30.1209 28.3125 30.8363 28.0162 31.3637 27.4887C31.8912 26.9613 32.1875 26.2459 32.1875 25.5V12.375C32.1875 11.6291 31.8912 10.9137 31.3637 10.3863C30.8363 9.85882 30.1209 9.5625 29.375 9.5625ZM30.3125 25.5C30.3125 25.7486 30.2137 25.9871 30.0379 26.1629C29.8621 26.3387 29.6236 26.4375 29.375 26.4375H10.625C10.3764 26.4375 10.1379 26.3387 9.96209 26.1629C9.78627 25.9871 9.6875 25.7486 9.6875 25.5V12.375C9.6875 12.1264 9.78627 11.8879 9.96209 11.7121C10.1379 11.5363 10.3764 11.4375 10.625 11.4375H14.375C14.5294 11.4376 14.6814 11.3996 14.8176 11.3268C14.9537 11.254 15.0698 11.1487 15.1555 11.0203L16.7516 8.625H23.2473L24.8445 11.0203C24.9302 11.1487 25.0463 11.254 25.1824 11.3268C25.3186 11.3996 25.4706 11.4376 25.625 11.4375H29.375C29.6236 11.4375 29.8621 11.5363 30.0379 11.7121C30.2137 11.8879 30.3125 12.1264 30.3125 12.375V25.5ZM20 13.3125C18.9802 13.3125 17.9833 13.6149 17.1353 14.1815C16.2874 14.7481 15.6265 15.5534 15.2362 16.4955C14.846 17.4377 14.7439 18.4745 14.9428 19.4747C15.1418 20.4749 15.6329 21.3937 16.354 22.1148C17.0751 22.8359 17.9939 23.327 18.9941 23.5259C19.9943 23.7249 21.031 23.6228 21.9732 23.2325C22.9154 22.8422 23.7207 22.1813 24.2873 21.3334C24.8538 20.4855 25.1562 19.4886 25.1562 18.4688C25.1547 17.1017 24.611 15.7911 23.6443 14.8244C22.6777 13.8578 21.367 13.3141 20 13.3125ZM20 21.75C19.351 21.75 18.7166 21.5576 18.177 21.197C17.6374 20.8365 17.2169 20.324 16.9685 19.7244C16.7202 19.1249 16.6552 18.4651 16.7818 17.8286C16.9084 17.1921 17.2209 16.6074 17.6798 16.1486C18.1387 15.6897 18.7234 15.3772 19.3599 15.2505C19.9964 15.1239 20.6561 15.1889 21.2557 15.4373C21.8552 15.6856 22.3677 16.1062 22.7283 16.6458C23.0888 17.1854 23.2813 17.8198 23.2812 18.4688C23.2812 19.339 22.9355 20.1736 22.3202 20.7889C21.7048 21.4043 20.8702 21.75 20 21.75Z" fill="black"/>
</svg>
