<svg width="198" height="198" viewBox="0 0 198 198" fill="none" xmlns="http://www.w3.org/2000/svg">
<path d="M99 0C44.352 0 0 44.352 0 99C0 153.648 44.352 198 99 198C153.648 198 198 153.648 198 99C198 44.352 153.648 0 99 0ZM99 39.6C118.107 39.6 133.65 55.143 133.65 74.25C133.65 93.357 118.107 108.9 99 108.9C79.893 108.9 64.35 93.357 64.35 74.25C64.35 55.143 79.893 39.6 99 39.6ZM99 178.2C78.903 178.2 55.143 170.082 38.214 149.688C55.5549 136.083 76.9588 128.688 99 128.688C121.041 128.688 142.445 136.083 159.786 149.688C142.857 170.082 119.097 178.2 99 178.2Z" fill="black"/>
</svg>
